<svg xmlns="http://www.w3.org/2000/svg" viewBox="0 0 283.87 287.44"><defs><style>.cls-1{opacity:0.1;}</style></defs><g id="Layer_2" data-name="Layer 2"><g id="Layer_1-2" data-name="Layer 1"><path class="cls-1" d="M77.25,0c4.71,2,6.34,5.61,6.3,10.68-.17,20.86-.07,41.72-.08,62.58,0,7-3,10-10.11,10q-31.62,0-63.25,0c-7.1,0-10-3-10-10.08,0-20.86.1-41.72-.08-62.57C0,5.51,1.6,2,6.37,0Z"/><path class="cls-1" d="M177.37,0c4.73,2,6.38,5.55,6.33,10.65-.18,20.86-.07,41.71-.08,62.57,0,7.08-3,10-10.06,10.06q-31.62,0-63.25,0c-7.1,0-10.06-3-10.06-10.06,0-20.86.1-41.71-.08-62.57,0-5.1,1.6-8.64,6.33-10.65Z"/><path class="cls-1" d="M277.5,0c4.77,2,6.42,5.51,6.37,10.62-.18,20.85-.07,41.71-.08,62.57,0,7.12-2.92,10.08-10,10.08q-31.63,0-63.26,0c-7.11,0-10.11-3-10.11-10,0-20.86.1-41.72-.08-62.58,0-5.07,1.59-8.65,6.3-10.68Z"/><path class="cls-1" d="M83.48,141.76q0,16,0,32c0,6.29-3.15,9.52-9.5,9.53q-32.19.08-64.38,0c-6.39,0-9.5-3.18-9.5-9.51q0-32.13,0-64.26c0-6.32,3.2-9.54,9.47-9.54q32.21,0,64.39,0c6.26,0,9.51,3.25,9.52,9.52Q83.5,125.62,83.48,141.76Z"/><path class="cls-1" d="M283.8,141.65q0,16,0,32c0,6.51-3.09,9.63-9.66,9.65q-32,0-64.1,0c-6.52,0-9.62-3.19-9.63-9.69q0-32,0-64c0-6.45,3.22-9.65,9.68-9.66h64.1c6.46,0,9.6,3.18,9.61,9.7Q283.82,125.65,283.8,141.65Z"/><path class="cls-1" d="M100.25,141.62c0-10.66,0-21.32,0-32,0-6.48,3.18-9.66,9.64-9.67H174c6.46,0,9.63,3.2,9.63,9.69q0,32,0,64c0,6.5-3.1,9.65-9.64,9.67q-32.05,0-64.1,0c-6.54,0-9.62-3.17-9.63-9.67C100.23,163,100.25,152.28,100.25,141.62Z"/><path class="cls-1" d="M83.48,245.83q0,16,0,32c0,6.44-3.2,9.61-9.69,9.61q-32.06,0-64.11,0c-6.35,0-9.58-3.15-9.58-9.41q0-32.28,0-64.54c0-6.15,3.15-9.29,9.39-9.31q32.33,0,64.67,0c6.17,0,9.31,3.23,9.32,9.38Q83.5,229.7,83.48,245.83Z"/><path class="cls-1" d="M183.63,245.89q0,15.86,0,31.71c0,6.71-3.09,9.83-9.73,9.83H110.07c-6.68,0-9.81-3.11-9.82-9.76q0-32,0-64c0-6.36,3.1-9.52,9.46-9.53q32.19,0,64.38,0c6.5,0,9.52,3.14,9.53,9.73Q183.65,229.9,183.63,245.89Z"/><path class="cls-1" d="M283.8,245.69q0,16,0,32c0,6.66-3.12,9.75-9.81,9.76q-31.92,0-63.82,0c-6.64,0-9.76-3.14-9.76-9.83q0-31.85,0-63.7c0-6.65,3.09-9.73,9.83-9.73q31.92,0,63.83,0c6.72,0,9.72,3.06,9.73,9.81Q283.82,229.84,283.8,245.69Z"/></g></g></svg>