<svg xmlns="http://www.w3.org/2000/svg" viewBox="0 0 409.6 408.93"><defs><style>.cls-1,.cls-2{opacity:0.1;}.cls-2{fill:#fff;}</style></defs><g id="Layer_2" data-name="Layer 2"><g id="Layer_1-2" data-name="Layer 1"><path class="cls-1" d="M409.6,168.57v71.87c-2.43,2.6-4.78,5.28-7.3,7.79q-77,76.88-154,153.69c-2.43,2.42-5,4.68-7.53,7h-72c-2.61-2.43-5.29-4.77-7.81-7.29Q84,324.83,7,248c-2.42-2.43-4.68-5-7-7.52V168.57c1.3-1.47,2.52-3,3.91-4.41Q84.16,84,164.41,3.87A12.05,12.05,0,0,1,173.61,0c20.39.11,40.78.16,61.16,0a14.54,14.54,0,0,1,11.28,4.69q78.18,78.26,156.52,156.36C405,163.47,407.26,166.06,409.6,168.57ZM204.18,310,310.12,204.29,205,99.38,99.07,205.13Zm-187-139.79,164,163.67,13.94-14a30,30,0,0,1-3.24-2.54Q127.07,252.8,62.32,188.15c-6.29-6.28-6.26-8.77.14-15.16L218.26,17.46c1.05-1,2-2.14,3.58-3.78-15.13,0-29.26.11-43.38-.08a9.63,9.63,0,0,0-7.65,3.12Q95.24,92.32,19.56,167.78C18.63,168.71,17.74,169.67,17.19,170.24Zm72,24.54a30.75,30.75,0,0,1,2.55-3.22q64.59-64.51,129.22-129c6.58-6.57,9-6.59,15.46-.12L392.2,218c1,1,2.14,2,3.77,3.57,0-15.4-.05-29.77,0-44.13a8,8,0,0,0-2.54-6.28Q317.34,95.28,241.3,19.31c-.9-.89-1.88-1.7-2.22-2L75.21,180.88Zm125.23-106c1.23,1,2.46,1.86,3.49,2.89Q282.64,156.32,347.39,221c6.12,6.12,6.11,8.71-.07,14.88q-77.91,77.76-155.81,155.53c-1.08,1.08-2.1,2.21-3.74,3.95h4.74c13.06,0,26.12-.1,39.19.07a8.77,8.77,0,0,0,6.92-2.94q75.72-75.72,151.53-151.34c.92-.91,1.78-1.89,2-2.17L228.05,75.12ZM320.79,214.13c-1.05,1.21-2,2.38-3,3.41Q253.07,282.19,188.3,346.83c-6.13,6.11-8.72,6.1-14.89-.06L17.59,191.24c-1.08-1.08-2.22-2.1-4-3.74v4.73c0,13,.09,26.08-.07,39.11a8.73,8.73,0,0,0,2.93,6.92q75.87,75.57,151.62,151.25c.92.92,1.9,1.78,2.18,2L334.41,227.73Z"/><path class="cls-2" d="M204.18,310,99.07,205.13,205,99.38,310.12,204.29Z"/><path class="cls-2" d="M17.19,170.24c.55-.57,1.44-1.53,2.37-2.46Q95.2,92.27,170.81,16.72a9.63,9.63,0,0,1,7.65-3.12c14.12.19,28.25.08,43.38.08-1.54,1.64-2.53,2.74-3.58,3.78L62.46,173c-6.4,6.39-6.43,8.88-.14,15.16q64.76,64.64,129.53,129.26a30,30,0,0,0,3.24,2.54l-13.94,14Z"/><path class="cls-2" d="M89.15,194.78l-13.94-13.9L239.08,17.31c.34.3,1.32,1.11,2.22,2q76.08,75.93,152.18,151.81A8,8,0,0,1,396,177.4c-.1,14.36,0,28.73,0,44.13-1.63-1.54-2.73-2.53-3.77-3.57L236.38,62.44c-6.47-6.47-8.88-6.45-15.46.12q-64.62,64.5-129.22,129A30.75,30.75,0,0,0,89.15,194.78Z"/><path class="cls-2" d="M214.38,88.81l13.67-13.69L392.19,239c-.26.28-1.12,1.26-2,2.17q-75.78,75.66-151.53,151.34a8.77,8.77,0,0,1-6.92,2.94c-13.07-.17-26.13-.07-39.19-.07h-4.74c1.64-1.74,2.66-2.87,3.74-3.95Q269.4,313.6,347.32,235.85c6.18-6.17,6.19-8.76.07-14.88Q282.64,156.33,217.87,91.7C216.84,90.67,215.61,89.83,214.38,88.81Z"/><path class="cls-2" d="M320.79,214.13l13.62,13.6L170.29,391.55c-.28-.26-1.26-1.12-2.18-2Q92.32,313.87,16.49,238.26a8.73,8.73,0,0,1-2.93-6.92c.16-13,.07-26.07.07-39.11V187.5c1.74,1.64,2.88,2.66,4,3.74L173.41,346.77c6.17,6.16,8.76,6.17,14.89.06q64.77-64.65,129.51-129.29C318.84,216.51,319.74,215.34,320.79,214.13Z"/></g></g></svg>