<svg xmlns="http://www.w3.org/2000/svg" viewBox="0 0 409.6 354.58"><defs><style>.cls-1{opacity:0.1;}</style></defs><g id="Layer_2" data-name="Layer 2"><g id="Layer_1-2" data-name="Layer 1"><path class="cls-1" d="M409.6,56.7Q380,107.28,350.37,157.88q-55.56,95.07-111,190.2c-2.65,4.56-5.81,6.59-11.18,6.5-16-.27-32-.17-48-.05-4.17,0-7-1.43-9.12-5.1Q86.34,204.19,1.49,59C1,58.2.5,57.46,0,56.7v-4C8.81,37.09,17.71,21.53,26.37,5.83,28.64,1.72,31.56,0,36.27,0q168.51.12,337,0C378,0,381,1.73,383.21,5.83c8.68,15.69,17.58,31.26,26.39,46.88ZM93.43,102.27l138.09,231.8c.73-1.14,1.19-1.79,1.58-2.47Q313.19,194.5,393.17,57.33a6.37,6.37,0,0,0,.14-5.3c-5.11-9.63-10.52-19.1-15.86-28.6a19.45,19.45,0,0,0-1.72-2.17c-.88,1.48-1.56,2.62-2.21,3.77Q306.76,142.41,240,259.79c-1.69,3-3.34,5.92-7.27,6-4.16.1-5.89-3-7.65-6.06Q204.57,224.13,184,188.56q-24-41.64-48.13-83.23c-.78-1.34-2.61-2.9-4-2.93C119.38,102.18,106.85,102.27,93.43,102.27Zm270.7-88.43c-1.56-.08-2.45-.16-3.34-.16q-160,0-319.9,0c-2.23,0-3.62.52-4.76,2.61-5.2,9.58-10.59,19.05-15.89,28.58a25,25,0,0,0-1.18,3H295.88c1.47,0,2.94-.06,4.4,0,5.57.34,8.37,5.18,5.91,10.23-.46,1-1,1.85-1.58,2.77-28,47.54-55.81,95.21-84.26,142.5-4.7,7.82-5.64,13.6-.06,21.06,4.68,6.26,8,13.51,12.25,20.81Zm-144.51,327c-1.39-2.37-2.31-4-3.25-5.55q-69.51-116.71-139-233.42c-1.8-3-3.8-6-1.77-9.59,2.12-3.81,5.82-3.65,9.47-3.65,12.66,0,25.33,0,38,0q72.78,0,145.57,0c1.45,0,3.69-.17,4.25-1.07,5.24-8.4,10.2-17,15.37-25.75H19c1,1.67,1.66,2.93,2.38,4.18Q75.3,158.31,129.2,250.63q25.45,43.58,51,87.12c.76,1.29,2.34,3,3.57,3C195.41,341,207.1,340.86,219.62,340.86Zm-13-140.51,57.63-97.82H150.1Z"/></g></g></svg>